<svg version="1.1" viewBox="0.0 0.0 512.0 512.0" fill="none" stroke="none" stroke-linecap="square" stroke-miterlimit="10" xmlns:xlink="http://www.w3.org/1999/xlink" xmlns="http://www.w3.org/2000/svg"><clipPath id="p.0"><path d="m0 0l512.0 0l0 512.0l-512.0 0l0 -512.0z" clip-rule="nonzero"/></clipPath><g clip-path="url(#p.0)"><path fill="#000000" fill-opacity="0.0" d="m0 0l512.0 0l0 512.0l-512.0 0z" fill-rule="evenodd"/><path fill="#000000" fill-opacity="0.0" d="m127.55643 336.60892l386.20474 0l0 42.015747l-386.20474 0z" fill-rule="evenodd"/><path fill="#660000" d="m4.0 88.00168l0 0c0 -46.392845 37.608833 -84.00168 84.00168 -84.00168l335.99664 0l0 0c22.278625 0 43.644775 8.850152 59.398163 24.603523c15.753357 15.753368 24.603516 37.11953 24.603516 59.398155l0 335.99664c0 46.392853 -37.608826 84.00168 -84.00168 84.00168l-335.99664 0c-46.392845 0 -84.00168 -37.608826 -84.00168 -84.00168z" fill-rule="evenodd"/><path stroke="#000000" stroke-width="8.0" stroke-linejoin="round" stroke-linecap="butt" d="m4.0 88.00168l0 0c0 -46.392845 37.608833 -84.00168 84.00168 -84.00168l335.99664 0l0 0c22.278625 0 43.644775 8.850152 59.398163 24.603523c15.753357 15.753368 24.603516 37.11953 24.603516 59.398155l0 335.99664c0 46.392853 -37.608826 84.00168 -84.00168 84.00168l-335.99664 0c-46.392845 0 -84.00168 -37.608826 -84.00168 -84.00168z" fill-rule="evenodd"/><path fill="#000000" fill-opacity="0.0" d="m-51.496063 84.70898l614.99207 0l0 342.58267l-614.99207 0z" fill-rule="evenodd"/><path fill="#ffffff" d="m188.40039 355.20346q-20.265625 0 -33.875 -7.203125q-13.59375 -7.203125 -20.53125 -22.265625q-6.921875 -15.0625 -7.71875 -39.0625l40.796875 -6.140625q0.265625 13.875 2.53125 22.40625q2.265625 8.53125 6.390625 12.265625q4.140625 3.734375 10.015625 3.734375q7.453125 0 9.71875 -5.0625q2.28125 -5.078125 2.28125 -10.671875q0 -13.328125 -6.40625 -22.53125q-6.40625 -9.203125 -17.328125 -18.53125l-18.671875 -16.26564q-12.265625 -10.40625 -20.671875 -23.59375q-8.390625 -13.203125 -8.390625 -32.671875q0 -27.46875 16.265625 -42.0q16.265625 -14.53125 44.265625 -14.53125q17.328125 0 27.859375 5.875q10.53125 5.859375 16.0 15.328125q5.46875 9.453125 7.46875 20.0q2.0 10.53125 2.265625 20.125l-41.0625 5.0625q-0.265625 -9.59375 -1.203125 -16.65625q-0.9375 -7.078125 -3.875 -10.9375q-2.921875 -3.875 -9.0625 -3.875q-6.65625 0 -9.734375 5.609375q-3.0625 5.59375 -3.0625 11.203125q0 12.0 5.734375 19.59375q5.734375 7.59375 15.0625 15.859375l17.875 15.734375q14.125 12.0 23.859375 27.20314q9.734375 15.203125 9.734375 37.59375q0 15.203125 -6.9375 27.609375q-6.921875 12.390625 -19.59375 19.59375q-12.671875 7.203125 -30.0 7.203125zm67.19357 -3.203125l40.796875 -215.98439l54.40625 0l40.265625 215.98439l-44.0 0l-7.203125 -45.59375l-31.734375 0l-7.453125 45.59375l-45.078125 0zm56.796875 -74.125l22.9375 0l-11.46875 -84.26564l-11.46875 84.26564z" fill-rule="nonzero"/></g></svg>